<?xml version="1.0" encoding="UTF-8" standalone="no"?>
<svg
   xmlns:dc="http://purl.org/dc/elements/1.1/"
   xmlns:cc="http://creativecommons.org/ns#"
   xmlns:rdf="http://www.w3.org/1999/02/22-rdf-syntax-ns#"
   xmlns:svg="http://www.w3.org/2000/svg"
   xmlns="http://www.w3.org/2000/svg"
   xmlns:sodipodi="http://sodipodi.sourceforge.net/DTD/sodipodi-0.dtd"
   xmlns:inkscape="http://www.inkscape.org/namespaces/inkscape"
   inkscape:version="1.0 (4035a4f, 2020-05-01)"
   sodipodi:docname="map-marker-alt-solid.svg"
   id="svg343"
   version="1.1"
   viewBox="0 0 384 512"
   role="img"
   class="svg-inline--fa fa-map-marker-alt fa-w-12"
   data-icon="map-marker-alt"
   data-prefix="fas"
   focusable="false"
   aria-hidden="true">
  <metadata
     id="metadata349">
    <rdf:RDF>
      <cc:Work
         rdf:about="">
        <dc:format>image/svg+xml</dc:format>
        <dc:type
           rdf:resource="http://purl.org/dc/dcmitype/StillImage" />
      </cc:Work>
    </rdf:RDF>
  </metadata>
  <defs
     id="defs347" />
  <sodipodi:namedview
     inkscape:current-layer="svg343"
     inkscape:window-maximized="0"
     inkscape:window-y="0"
     inkscape:window-x="0"
     inkscape:cy="256"
     inkscape:cx="11.817185"
     inkscape:zoom="1.0683594"
     showgrid="false"
     id="namedview345"
     inkscape:window-height="800"
     inkscape:window-width="1280"
     inkscape:pageshadow="2"
     inkscape:pageopacity="0"
     guidetolerance="10"
     gridtolerance="10"
     objecttolerance="10"
     borderopacity="1"
     bordercolor="#666666"
     pagecolor="#ffffff" />
  <path
     id="path341"
     d="M172.268 501.67C26.97 291.031 0 269.413 0 192 0 85.961 85.961 0 192 0s192 85.961 192 192c0 77.413-26.97 99.031-172.268 309.67-9.535 13.774-29.93 13.773-39.464 0zM192 272c44.183 0 80-35.817 80-80s-35.817-80-80-80-80 35.817-80 80 35.817 80 80 80z"
     fill="currentColor" />
  <path
     id="path351"
     d="m 184.33124,510.12949 c -6.15381,-2.26199 -9.03478,-5.27152 -19.66987,-20.54766 C 158.90922,481.3195 134.6092,446.54918 110.66133,412.31444 62.814031,343.91423 43.956972,316.09911 32.927203,297.65265 10.359843,259.91044 3.3756922,240.00429 1.0089248,206.67952 -1.7359925,168.03028 7.4060585,128.36664 26.558559,95.830067 78.605198,7.4123854 189.62569,-24.923597 279.80171,22.070109 c 46.84685,24.413443 81.75707,66.863783 96.08903,116.842911 10.38175,36.20378 10.05773,77.51362 -0.864,110.15276 -9.72817,29.0722 -24.93957,53.48946 -101.70025,163.24866 -23.94224,34.23474 -48.23722,69.00506 -53.98884,77.26739 -5.75162,8.26233 -11.74399,15.97359 -13.3164,17.13611 -6.23812,4.61204 -14.77226,5.95434 -21.69001,3.41155 z m 15.9647,-238.23677 c 39.45077,-4.15532 69.67864,-35.82741 71.89469,-75.32965 1.83539,-32.71692 -15.66413,-62.5947 -44.93093,-76.71271 -13.28714,-6.40958 -18.37008,-7.48921 -35.2597,-7.48921 -16.88962,0 -21.97256,1.07963 -35.2597,7.48921 -57.613524,27.79219 -60.607236,108.90847 -5.22864,141.67271 8.1009,4.79283 21.74064,9.3389 30.94342,10.31331 3.96269,0.41958 7.62609,0.8116 8.1409,0.87116 0.51481,0.0595 4.87979,-0.30711 9.69996,-0.81482 z"
     style="fill:#ffffff;fill-opacity:1;stroke-width:0.936015" />
</svg>
